<svg xmlns="http://www.w3.org/2000/svg" xmlns:xlink="http://www.w3.org/1999/xlink" width="170" zoomAndPan="magnify" viewBox="0 0 127.5 30.000001" height="40" preserveAspectRatio="xMidYMid meet" version="1.0"><defs><g/><clipPath id="f7982cae60"><path d="M 1.816406 0 L 125.203125 0 L 125.203125 29.03125 L 1.816406 29.03125 Z M 1.816406 0 " clip-rule="nonzero"/></clipPath><clipPath id="d7ee07d359"><path d="M 14.476562 0.59375 L 43.625 0.59375 L 43.625 28.4375 L 14.476562 28.4375 Z M 14.476562 0.59375 " clip-rule="nonzero"/></clipPath><clipPath id="b481768076"><path d="M 28.398438 0.59375 L 29.628906 0.59375 C 33.320312 0.59375 36.863281 2.0625 39.472656 4.671875 C 42.085938 7.28125 43.550781 10.824219 43.550781 14.515625 C 43.550781 18.207031 42.085938 21.75 39.472656 24.359375 C 36.863281 26.972656 33.320312 28.4375 29.628906 28.4375 L 28.398438 28.4375 C 24.707031 28.4375 21.164062 26.972656 18.554688 24.359375 C 15.941406 21.75 14.476562 18.207031 14.476562 14.515625 C 14.476562 10.824219 15.941406 7.28125 18.554688 4.671875 C 21.164062 2.0625 24.707031 0.59375 28.398438 0.59375 Z M 28.398438 0.59375 " clip-rule="nonzero"/></clipPath><clipPath id="f4fb3694bd"><path d="M 0.476562 0.59375 L 29.621094 0.59375 L 29.621094 28.4375 L 0.476562 28.4375 Z M 0.476562 0.59375 " clip-rule="nonzero"/></clipPath><clipPath id="fcbd2f1900"><path d="M 14.398438 0.59375 L 15.628906 0.59375 C 19.320312 0.59375 22.863281 2.0625 25.472656 4.671875 C 28.085938 7.28125 29.550781 10.824219 29.550781 14.515625 C 29.550781 18.207031 28.085938 21.75 25.472656 24.359375 C 22.863281 26.972656 19.320312 28.4375 15.628906 28.4375 L 14.398438 28.4375 C 10.707031 28.4375 7.164062 26.972656 4.554688 24.359375 C 1.941406 21.75 0.476562 18.207031 0.476562 14.515625 C 0.476562 10.824219 1.941406 7.28125 4.554688 4.671875 C 7.164062 2.0625 10.707031 0.59375 14.398438 0.59375 Z M 14.398438 0.59375 " clip-rule="nonzero"/></clipPath><clipPath id="20cdfdbce6"><rect x="0" width="30" y="0" height="29"/></clipPath><clipPath id="dd4c35e52a"><path d="M 18 8 L 31 8 L 31 26.871094 L 18 26.871094 Z M 18 8 " clip-rule="nonzero"/></clipPath><clipPath id="6d3b6fd08c"><path d="M 62 8 L 70.53125 8 L 70.53125 21 L 62 21 Z M 62 8 " clip-rule="nonzero"/></clipPath><clipPath id="11b34f4d0e"><rect x="0" width="71" y="0" height="27"/></clipPath><clipPath id="5812682cef"><path d="M 34.632812 7.949219 L 37.976562 7.949219 L 37.976562 24.40625 L 34.632812 24.40625 Z M 34.632812 7.949219 " clip-rule="nonzero"/></clipPath><clipPath id="828dec2b7e"><path d="M 34.632812 22.734375 L 34.632812 9.628906 C 34.632812 9.183594 34.808594 8.757812 35.121094 8.445312 C 35.4375 8.132812 35.859375 7.957031 36.304688 7.957031 C 36.746094 7.957031 37.171875 8.132812 37.488281 8.445312 C 37.800781 8.757812 37.976562 9.183594 37.976562 9.628906 L 37.976562 22.734375 C 37.976562 23.175781 37.800781 23.601562 37.488281 23.914062 C 37.171875 24.230469 36.746094 24.40625 36.304688 24.40625 C 35.859375 24.40625 35.4375 24.230469 35.121094 23.914062 C 34.808594 23.601562 34.632812 23.175781 34.632812 22.734375 Z M 34.632812 22.734375 " clip-rule="nonzero"/></clipPath><clipPath id="28e5c78153"><path d="M 0.632812 0.949219 L 3.976562 0.949219 L 3.976562 17.40625 L 0.632812 17.40625 Z M 0.632812 0.949219 " clip-rule="nonzero"/></clipPath><clipPath id="780667f84c"><path d="M 0.632812 15.734375 L 0.632812 2.628906 C 0.632812 2.183594 0.808594 1.757812 1.121094 1.445312 C 1.4375 1.132812 1.859375 0.957031 2.304688 0.957031 C 2.746094 0.957031 3.171875 1.132812 3.488281 1.445312 C 3.800781 1.757812 3.976562 2.183594 3.976562 2.628906 L 3.976562 15.734375 C 3.976562 16.175781 3.800781 16.601562 3.488281 16.914062 C 3.171875 17.230469 2.746094 17.40625 2.304688 17.40625 C 1.859375 17.40625 1.4375 17.230469 1.121094 16.914062 C 0.808594 16.601562 0.632812 16.175781 0.632812 15.734375 Z M 0.632812 15.734375 " clip-rule="nonzero"/></clipPath><clipPath id="dd7389fc85"><rect x="0" width="4" y="0" height="18"/></clipPath><clipPath id="1e472e0a44"><path d="M 20.207031 7.949219 L 23.550781 7.949219 L 23.550781 24.40625 L 20.207031 24.40625 Z M 20.207031 7.949219 " clip-rule="nonzero"/></clipPath><clipPath id="fd2750c0cc"><path d="M 20.207031 22.734375 L 20.207031 9.628906 C 20.207031 9.183594 20.382812 8.757812 20.695312 8.445312 C 21.007812 8.132812 21.433594 7.957031 21.878906 7.957031 C 22.320312 7.957031 22.746094 8.132812 23.058594 8.445312 C 23.371094 8.757812 23.550781 9.183594 23.550781 9.628906 L 23.550781 22.734375 C 23.550781 23.175781 23.371094 23.601562 23.058594 23.914062 C 22.746094 24.230469 22.320312 24.40625 21.878906 24.40625 C 21.433594 24.40625 21.007812 24.230469 20.695312 23.914062 C 20.382812 23.601562 20.207031 23.175781 20.207031 22.734375 Z M 20.207031 22.734375 " clip-rule="nonzero"/></clipPath><clipPath id="7c97a3863b"><path d="M 0.207031 0.949219 L 3.550781 0.949219 L 3.550781 17.40625 L 0.207031 17.40625 Z M 0.207031 0.949219 " clip-rule="nonzero"/></clipPath><clipPath id="812a96e25b"><path d="M 0.207031 15.734375 L 0.207031 2.628906 C 0.207031 2.183594 0.382812 1.757812 0.695312 1.445312 C 1.007812 1.132812 1.433594 0.957031 1.878906 0.957031 C 2.320312 0.957031 2.746094 1.132812 3.058594 1.445312 C 3.371094 1.757812 3.550781 2.183594 3.550781 2.628906 L 3.550781 15.734375 C 3.550781 16.175781 3.371094 16.601562 3.058594 16.914062 C 2.746094 17.230469 2.320312 17.40625 1.878906 17.40625 C 1.433594 17.40625 1.007812 17.230469 0.695312 16.914062 C 0.382812 16.601562 0.207031 16.175781 0.207031 15.734375 Z M 0.207031 15.734375 " clip-rule="nonzero"/></clipPath><clipPath id="ecc4fe95a7"><rect x="0" width="4" y="0" height="18"/></clipPath><clipPath id="77ccbb5088"><path d="M 25.136719 18.660156 L 32.902344 18.660156 L 32.902344 22.40625 L 25.136719 22.40625 Z M 25.136719 18.660156 " clip-rule="nonzero"/></clipPath><clipPath id="1f1ddfffad"><path d="M 27.007812 18.660156 L 31.019531 18.660156 C 31.515625 18.660156 31.992188 18.859375 32.34375 19.210938 C 32.695312 19.5625 32.890625 20.039062 32.890625 20.535156 C 32.890625 21.03125 32.695312 21.507812 32.34375 21.859375 C 31.992188 22.210938 31.515625 22.40625 31.019531 22.40625 L 27.007812 22.40625 C 26.511719 22.40625 26.035156 22.210938 25.683594 21.859375 C 25.332031 21.507812 25.136719 21.03125 25.136719 20.535156 C 25.136719 20.039062 25.332031 19.5625 25.683594 19.210938 C 26.035156 18.859375 26.511719 18.660156 27.007812 18.660156 Z M 27.007812 18.660156 " clip-rule="nonzero"/></clipPath><clipPath id="7fd6f156b3"><path d="M 0.136719 0.660156 L 7.902344 0.660156 L 7.902344 4.40625 L 0.136719 4.40625 Z M 0.136719 0.660156 " clip-rule="nonzero"/></clipPath><clipPath id="f735cfb589"><path d="M 2.007812 0.660156 L 6.019531 0.660156 C 6.515625 0.660156 6.992188 0.859375 7.34375 1.210938 C 7.695312 1.5625 7.890625 2.039062 7.890625 2.535156 C 7.890625 3.03125 7.695312 3.507812 7.34375 3.859375 C 6.992188 4.210938 6.515625 4.40625 6.019531 4.40625 L 2.007812 4.40625 C 1.511719 4.40625 1.035156 4.210938 0.683594 3.859375 C 0.332031 3.507812 0.136719 3.03125 0.136719 2.535156 C 0.136719 2.039062 0.332031 1.5625 0.683594 1.210938 C 1.035156 0.859375 1.511719 0.660156 2.007812 0.660156 Z M 2.007812 0.660156 " clip-rule="nonzero"/></clipPath><clipPath id="9180ecc7b9"><rect x="0" width="8" y="0" height="5"/></clipPath><clipPath id="47fedd3cb7"><path d="M 25.128906 12.976562 L 28.472656 12.976562 L 28.472656 22.40625 L 25.128906 22.40625 Z M 25.128906 12.976562 " clip-rule="nonzero"/></clipPath><clipPath id="4848fc0698"><path d="M 28.472656 14.648438 L 28.472656 20.734375 C 28.472656 21.175781 28.296875 21.601562 27.980469 21.914062 C 27.667969 22.226562 27.242188 22.402344 26.800781 22.402344 C 26.355469 22.402344 25.933594 22.226562 25.617188 21.914062 C 25.304688 21.601562 25.128906 21.175781 25.128906 20.734375 L 25.128906 14.648438 C 25.128906 14.203125 25.304688 13.777344 25.617188 13.464844 C 25.933594 13.152344 26.355469 12.976562 26.800781 12.976562 C 27.242188 12.976562 27.667969 13.152344 27.980469 13.464844 C 28.296875 13.777344 28.472656 14.203125 28.472656 14.648438 Z M 28.472656 14.648438 " clip-rule="nonzero"/></clipPath><clipPath id="852a0c5906"><path d="M 0.128906 0.976562 L 3.472656 0.976562 L 3.472656 10.40625 L 0.128906 10.40625 Z M 0.128906 0.976562 " clip-rule="nonzero"/></clipPath><clipPath id="1791a6ff99"><path d="M 3.472656 2.648438 L 3.472656 8.734375 C 3.472656 9.175781 3.296875 9.601562 2.980469 9.914062 C 2.667969 10.226562 2.242188 10.402344 1.800781 10.402344 C 1.355469 10.402344 0.933594 10.226562 0.617188 9.914062 C 0.304688 9.601562 0.128906 9.175781 0.128906 8.734375 L 0.128906 2.648438 C 0.128906 2.203125 0.304688 1.777344 0.617188 1.464844 C 0.933594 1.152344 1.355469 0.976562 1.800781 0.976562 C 2.242188 0.976562 2.667969 1.152344 2.980469 1.464844 C 3.296875 1.777344 3.472656 2.203125 3.472656 2.648438 Z M 3.472656 2.648438 " clip-rule="nonzero"/></clipPath><clipPath id="ad6c1eba10"><rect x="0" width="4" y="0" height="11"/></clipPath><clipPath id="9d2bbce597"><path d="M 25.121094 12.835938 L 37.972656 12.835938 L 37.972656 16.179688 L 25.121094 16.179688 Z M 25.121094 12.835938 " clip-rule="nonzero"/></clipPath><clipPath id="818739e7cf"><path d="M 36.300781 16.179688 L 26.804688 16.179688 C 26.363281 16.179688 25.9375 16.003906 25.625 15.6875 C 25.308594 15.375 25.132812 14.949219 25.132812 14.507812 C 25.132812 14.0625 25.308594 13.636719 25.625 13.324219 C 25.9375 13.011719 26.363281 12.835938 26.804688 12.835938 L 36.300781 12.835938 C 36.746094 12.835938 37.171875 13.011719 37.484375 13.324219 C 37.796875 13.636719 37.972656 14.0625 37.972656 14.507812 C 37.972656 14.949219 37.796875 15.375 37.484375 15.6875 C 37.171875 16.003906 36.746094 16.179688 36.300781 16.179688 Z M 36.300781 16.179688 " clip-rule="nonzero"/></clipPath><clipPath id="2d8953535d"><path d="M 0.121094 0.835938 L 12.972656 0.835938 L 12.972656 4.179688 L 0.121094 4.179688 Z M 0.121094 0.835938 " clip-rule="nonzero"/></clipPath><clipPath id="18e3efdde9"><path d="M 11.300781 4.179688 L 1.804688 4.179688 C 1.363281 4.179688 0.9375 4.003906 0.625 3.6875 C 0.308594 3.375 0.132812 2.949219 0.132812 2.507812 C 0.132812 2.0625 0.308594 1.636719 0.625 1.324219 C 0.9375 1.011719 1.363281 0.835938 1.804688 0.835938 L 11.300781 0.835938 C 11.746094 0.835938 12.171875 1.011719 12.484375 1.324219 C 12.796875 1.636719 12.972656 2.0625 12.972656 2.507812 C 12.972656 2.949219 12.796875 3.375 12.484375 3.6875 C 12.171875 4.003906 11.746094 4.179688 11.300781 4.179688 Z M 11.300781 4.179688 " clip-rule="nonzero"/></clipPath><clipPath id="876da471b1"><rect x="0" width="13" y="0" height="5"/></clipPath><clipPath id="7256713573"><path d="M 22.34375 3.332031 L 35.695312 3.332031 L 35.695312 7.707031 L 22.34375 7.707031 Z M 22.34375 3.332031 " clip-rule="nonzero"/></clipPath><clipPath id="2382ff3a82"><path d="M 24.53125 3.332031 L 33.496094 3.332031 C 34.074219 3.332031 34.632812 3.5625 35.042969 3.972656 C 35.453125 4.382812 35.683594 4.9375 35.683594 5.519531 C 35.683594 6.101562 35.453125 6.65625 35.042969 7.066406 C 34.632812 7.476562 34.074219 7.707031 33.496094 7.707031 L 24.53125 7.707031 C 23.953125 7.707031 23.394531 7.476562 22.984375 7.066406 C 22.574219 6.65625 22.34375 6.101562 22.34375 5.519531 C 22.34375 4.9375 22.574219 4.382812 22.984375 3.972656 C 23.394531 3.5625 23.953125 3.332031 24.53125 3.332031 Z M 24.53125 3.332031 " clip-rule="nonzero"/></clipPath><clipPath id="015b95069c"><path d="M 0.34375 0.332031 L 13.695312 0.332031 L 13.695312 4.707031 L 0.34375 4.707031 Z M 0.34375 0.332031 " clip-rule="nonzero"/></clipPath><clipPath id="a648db93a8"><path d="M 2.53125 0.332031 L 11.496094 0.332031 C 12.074219 0.332031 12.632812 0.5625 13.042969 0.972656 C 13.453125 1.382812 13.683594 1.9375 13.683594 2.519531 C 13.683594 3.101562 13.453125 3.65625 13.042969 4.066406 C 12.632812 4.476562 12.074219 4.707031 11.496094 4.707031 L 2.53125 4.707031 C 1.953125 4.707031 1.394531 4.476562 0.984375 4.066406 C 0.574219 3.65625 0.34375 3.101562 0.34375 2.519531 C 0.34375 1.9375 0.574219 1.382812 0.984375 0.972656 C 1.394531 0.5625 1.953125 0.332031 2.53125 0.332031 Z M 2.53125 0.332031 " clip-rule="nonzero"/></clipPath><clipPath id="285488b57f"><rect x="0" width="14" y="0" height="5"/></clipPath><clipPath id="9fde23c9a8"><path d="M 24.738281 6.085938 L 33.304688 6.085938 L 33.304688 10.460938 L 24.738281 10.460938 Z M 24.738281 6.085938 " clip-rule="nonzero"/></clipPath><clipPath id="474829eb08"><path d="M 26.925781 6.085938 L 31.101562 6.085938 C 31.679688 6.085938 32.238281 6.316406 32.648438 6.726562 C 33.058594 7.136719 33.289062 7.695312 33.289062 8.273438 C 33.289062 8.855469 33.058594 9.410156 32.648438 9.820312 C 32.238281 10.230469 31.679688 10.460938 31.101562 10.460938 L 26.925781 10.460938 C 26.347656 10.460938 25.789062 10.230469 25.378906 9.820312 C 24.96875 9.410156 24.738281 8.855469 24.738281 8.273438 C 24.738281 7.695312 24.96875 7.136719 25.378906 6.726562 C 25.789062 6.316406 26.347656 6.085938 26.925781 6.085938 Z M 26.925781 6.085938 " clip-rule="nonzero"/></clipPath><clipPath id="75839c0c24"><path d="M 0.738281 0.0859375 L 9.304688 0.0859375 L 9.304688 4.460938 L 0.738281 4.460938 Z M 0.738281 0.0859375 " clip-rule="nonzero"/></clipPath><clipPath id="588324d0b9"><path d="M 2.925781 0.0859375 L 7.101562 0.0859375 C 7.679688 0.0859375 8.238281 0.316406 8.648438 0.726562 C 9.058594 1.136719 9.289062 1.695312 9.289062 2.273438 C 9.289062 2.855469 9.058594 3.410156 8.648438 3.820312 C 8.238281 4.230469 7.679688 4.460938 7.101562 4.460938 L 2.925781 4.460938 C 2.347656 4.460938 1.789062 4.230469 1.378906 3.820312 C 0.96875 3.410156 0.738281 2.855469 0.738281 2.273438 C 0.738281 1.695312 0.96875 1.136719 1.378906 0.726562 C 1.789062 0.316406 2.347656 0.0859375 2.925781 0.0859375 Z M 2.925781 0.0859375 " clip-rule="nonzero"/></clipPath><clipPath id="2ceaf13d44"><rect x="0" width="10" y="0" height="5"/></clipPath></defs><g clip-path="url(#f7982cae60)"><path fill="#ffffff" d="M 1.816406 0 L 125.203125 0 L 125.203125 29.03125 L 1.816406 29.03125 Z M 1.816406 0 " fill-opacity="1" fill-rule="nonzero"/><path fill="#292828" d="M 1.816406 0 L 125.203125 0 L 125.203125 29.03125 L 1.816406 29.03125 Z M 1.816406 0 " fill-opacity="1" fill-rule="nonzero"/></g><g clip-path="url(#d7ee07d359)"><g clip-path="url(#b481768076)"><g transform="matrix(1, 0, 0, 1, 14, 0.000000000000005718)"><g clip-path="url(#20cdfdbce6)"><g clip-path="url(#f4fb3694bd)"><g clip-path="url(#fcbd2f1900)"><path fill="#ef7322" d="M 0.476562 0.59375 L 29.515625 0.59375 L 29.515625 28.4375 L 0.476562 28.4375 Z M 0.476562 0.59375 " fill-opacity="1" fill-rule="nonzero"/></g></g></g></g></g></g><g transform="matrix(1, 0, 0, 1, 43, 1)"><g clip-path="url(#11b34f4d0e)"><g fill="#ffffff" fill-opacity="1"><g transform="translate(0.551117, 20.839638)"><g><path d="M 12.609375 0 L 9.53125 0 L 9.53125 -6.765625 C 9.53125 -7.734375 9.359375 -8.4375 9.015625 -8.875 C 8.679688 -9.320312 8.21875 -9.546875 7.625 -9.546875 C 7.207031 -9.546875 6.785156 -9.4375 6.359375 -9.21875 C 5.941406 -9.007812 5.5625 -8.71875 5.21875 -8.34375 C 4.882812 -7.96875 4.640625 -7.535156 4.484375 -7.046875 L 4.484375 0 L 1.40625 0 L 1.40625 -12.0625 L 4.1875 -12.0625 L 4.1875 -9.828125 C 4.5 -10.347656 4.890625 -10.785156 5.359375 -11.140625 C 5.835938 -11.503906 6.382812 -11.78125 7 -11.96875 C 7.625 -12.164062 8.28125 -12.265625 8.96875 -12.265625 C 9.726562 -12.265625 10.347656 -12.128906 10.828125 -11.859375 C 11.304688 -11.597656 11.671875 -11.238281 11.921875 -10.78125 C 12.179688 -10.332031 12.359375 -9.820312 12.453125 -9.25 C 12.554688 -8.6875 12.609375 -8.113281 12.609375 -7.53125 Z M 12.609375 0 "/></g></g></g><g fill="#ffffff" fill-opacity="1"><g transform="translate(13.227398, 20.839638)"><g><path d="M 1.40625 0 L 1.40625 -12.0625 L 4.484375 -12.0625 L 4.484375 0 Z M 1.40625 -13.734375 L 1.40625 -16.796875 L 4.484375 -16.796875 L 4.484375 -13.734375 Z M 1.40625 -13.734375 "/></g></g></g><g clip-path="url(#dd4c35e52a)"><g fill="#ffffff" fill-opacity="1"><g transform="translate(17.874202, 20.839638)"><g><path d="M 1.65625 2.34375 C 1.9375 2.40625 2.191406 2.457031 2.421875 2.5 C 2.660156 2.550781 2.863281 2.578125 3.03125 2.578125 C 3.320312 2.578125 3.5625 2.503906 3.75 2.359375 C 3.945312 2.210938 4.140625 1.953125 4.328125 1.578125 C 4.515625 1.203125 4.707031 0.675781 4.90625 0 L 0.140625 -12.0625 L 3.34375 -12.0625 L 6.578125 -3.15625 L 9.4375 -12.0625 L 12.375 -12.0625 L 7.3125 2.390625 C 7.132812 2.929688 6.859375 3.421875 6.484375 3.859375 C 6.109375 4.296875 5.640625 4.640625 5.078125 4.890625 C 4.515625 5.140625 3.890625 5.265625 3.203125 5.265625 C 2.953125 5.265625 2.703125 5.242188 2.453125 5.203125 C 2.210938 5.171875 1.945312 5.109375 1.65625 5.015625 Z M 1.65625 2.34375 "/></g></g></g></g><g fill="#ffffff" fill-opacity="1"><g transform="translate(29.308111, 20.839638)"><g><path d="M 0.578125 -3.5625 C 0.578125 -4.34375 0.796875 -5.03125 1.234375 -5.625 C 1.671875 -6.21875 2.28125 -6.675781 3.0625 -7 C 3.84375 -7.320312 4.738281 -7.484375 5.75 -7.484375 C 6.257812 -7.484375 6.773438 -7.441406 7.296875 -7.359375 C 7.816406 -7.285156 8.269531 -7.164062 8.65625 -7 L 8.65625 -7.640625 C 8.65625 -8.410156 8.425781 -9 7.96875 -9.40625 C 7.519531 -9.820312 6.851562 -10.03125 5.96875 -10.03125 C 5.300781 -10.03125 4.664062 -9.914062 4.0625 -9.6875 C 3.46875 -9.457031 2.84375 -9.117188 2.1875 -8.671875 L 1.203125 -10.703125 C 1.992188 -11.222656 2.804688 -11.613281 3.640625 -11.875 C 4.484375 -12.132812 5.363281 -12.265625 6.28125 -12.265625 C 8 -12.265625 9.335938 -11.832031 10.296875 -10.96875 C 11.253906 -10.113281 11.734375 -8.890625 11.734375 -7.296875 L 11.734375 -3.453125 C 11.734375 -3.128906 11.789062 -2.898438 11.90625 -2.765625 C 12.019531 -2.628906 12.207031 -2.546875 12.46875 -2.515625 L 12.46875 0 C 12.195312 0.0390625 11.945312 0.078125 11.71875 0.109375 C 11.5 0.140625 11.3125 0.15625 11.15625 0.15625 C 10.539062 0.15625 10.078125 0.0195312 9.765625 -0.25 C 9.453125 -0.53125 9.257812 -0.867188 9.1875 -1.265625 L 9.109375 -1.890625 C 8.585938 -1.210938 7.9375 -0.6875 7.15625 -0.3125 C 6.375 0.0507812 5.578125 0.234375 4.765625 0.234375 C 3.960938 0.234375 3.242188 0.0664062 2.609375 -0.265625 C 1.972656 -0.597656 1.472656 -1.050781 1.109375 -1.625 C 0.753906 -2.195312 0.578125 -2.84375 0.578125 -3.5625 Z M 8.078125 -2.953125 C 8.242188 -3.128906 8.378906 -3.3125 8.484375 -3.5 C 8.597656 -3.6875 8.65625 -3.851562 8.65625 -4 L 8.65625 -5.21875 C 8.28125 -5.375 7.878906 -5.492188 7.453125 -5.578125 C 7.023438 -5.660156 6.617188 -5.703125 6.234375 -5.703125 C 5.441406 -5.703125 4.785156 -5.53125 4.265625 -5.1875 C 3.753906 -4.84375 3.5 -4.390625 3.5 -3.828125 C 3.5 -3.515625 3.582031 -3.21875 3.75 -2.9375 C 3.914062 -2.664062 4.160156 -2.445312 4.484375 -2.28125 C 4.804688 -2.113281 5.191406 -2.03125 5.640625 -2.03125 C 6.097656 -2.03125 6.550781 -2.117188 7 -2.296875 C 7.445312 -2.472656 7.804688 -2.691406 8.078125 -2.953125 Z M 8.078125 -2.953125 "/></g></g></g><g fill="#ffffff" fill-opacity="1"><g transform="translate(41.294184, 20.839638)"><g><path d="M 12.609375 0 L 9.53125 0 L 9.53125 -6.765625 C 9.53125 -7.734375 9.359375 -8.4375 9.015625 -8.875 C 8.679688 -9.320312 8.21875 -9.546875 7.625 -9.546875 C 7.207031 -9.546875 6.785156 -9.4375 6.359375 -9.21875 C 5.941406 -9.007812 5.5625 -8.71875 5.21875 -8.34375 C 4.882812 -7.96875 4.640625 -7.535156 4.484375 -7.046875 L 4.484375 0 L 1.40625 0 L 1.40625 -12.0625 L 4.1875 -12.0625 L 4.1875 -9.828125 C 4.5 -10.347656 4.890625 -10.785156 5.359375 -11.140625 C 5.835938 -11.503906 6.382812 -11.78125 7 -11.96875 C 7.625 -12.164062 8.28125 -12.265625 8.96875 -12.265625 C 9.726562 -12.265625 10.347656 -12.128906 10.828125 -11.859375 C 11.304688 -11.597656 11.671875 -11.238281 11.921875 -10.78125 C 12.179688 -10.332031 12.359375 -9.820312 12.453125 -9.25 C 12.554688 -8.6875 12.609375 -8.113281 12.609375 -7.53125 Z M 12.609375 0 "/></g></g></g><g fill="#ffffff" fill-opacity="1"><g transform="translate(53.970466, 20.839638)"><g><path d="M 8.625 -0.625 C 8.363281 -0.507812 8.050781 -0.382812 7.6875 -0.25 C 7.320312 -0.113281 6.925781 -0.00390625 6.5 0.078125 C 6.082031 0.160156 5.65625 0.203125 5.21875 0.203125 C 4.65625 0.203125 4.132812 0.101562 3.65625 -0.09375 C 3.1875 -0.289062 2.804688 -0.609375 2.515625 -1.046875 C 2.234375 -1.484375 2.09375 -2.054688 2.09375 -2.765625 L 2.09375 -9.6875 L 0.5 -9.6875 L 0.5 -12.0625 L 2.09375 -12.0625 L 2.09375 -15.96875 L 5.171875 -15.96875 L 5.171875 -12.0625 L 7.703125 -12.0625 L 7.703125 -9.6875 L 5.171875 -9.6875 L 5.171875 -3.796875 C 5.191406 -3.378906 5.304688 -3.078125 5.515625 -2.890625 C 5.734375 -2.710938 6.003906 -2.625 6.328125 -2.625 C 6.648438 -2.625 6.960938 -2.675781 7.265625 -2.78125 C 7.578125 -2.894531 7.828125 -2.988281 8.015625 -3.0625 Z M 8.625 -0.625 "/></g></g></g><g clip-path="url(#6d3b6fd08c)"><g fill="#ffffff" fill-opacity="1"><g transform="translate(61.585187, 20.839638)"><g><path d="M 8.578125 -9.390625 C 7.648438 -9.390625 6.816406 -9.207031 6.078125 -8.84375 C 5.335938 -8.488281 4.804688 -7.972656 4.484375 -7.296875 L 4.484375 0 L 1.40625 0 L 1.40625 -12.0625 L 4.234375 -12.0625 L 4.234375 -9.484375 C 4.660156 -10.304688 5.203125 -10.957031 5.859375 -11.4375 C 6.523438 -11.914062 7.226562 -12.175781 7.96875 -12.21875 C 8.132812 -12.21875 8.265625 -12.21875 8.359375 -12.21875 C 8.453125 -12.21875 8.523438 -12.210938 8.578125 -12.203125 Z M 8.578125 -9.390625 "/></g></g></g></g></g></g><g clip-path="url(#5812682cef)"><g clip-path="url(#828dec2b7e)"><g transform="matrix(1, 0, 0, 1, 34, 7)"><g clip-path="url(#dd7389fc85)"><g clip-path="url(#28e5c78153)"><g clip-path="url(#780667f84c)"><path fill="#ffffff" d="M 0.632812 17.40625 L 0.632812 0.949219 L 3.976562 0.949219 L 3.976562 17.40625 Z M 0.632812 17.40625 " fill-opacity="1" fill-rule="nonzero"/></g></g></g></g></g></g><g clip-path="url(#1e472e0a44)"><g clip-path="url(#fd2750c0cc)"><g transform="matrix(1, 0, 0, 1, 20, 7)"><g clip-path="url(#ecc4fe95a7)"><g clip-path="url(#7c97a3863b)"><g clip-path="url(#812a96e25b)"><path fill="#ffffff" d="M 0.207031 17.40625 L 0.207031 0.949219 L 3.550781 0.949219 L 3.550781 17.40625 Z M 0.207031 17.40625 " fill-opacity="1" fill-rule="nonzero"/></g></g></g></g></g></g><g clip-path="url(#77ccbb5088)"><g clip-path="url(#1f1ddfffad)"><g transform="matrix(1, 0, 0, 1, 25, 18)"><g clip-path="url(#9180ecc7b9)"><g clip-path="url(#7fd6f156b3)"><g clip-path="url(#f735cfb589)"><path fill="#ffffff" d="M 0.136719 0.660156 L 7.886719 0.660156 L 7.886719 4.40625 L 0.136719 4.40625 Z M 0.136719 0.660156 " fill-opacity="1" fill-rule="nonzero"/></g></g></g></g></g></g><g clip-path="url(#47fedd3cb7)"><g clip-path="url(#4848fc0698)"><g transform="matrix(1, 0, 0, 1, 25, 12)"><g clip-path="url(#ad6c1eba10)"><g clip-path="url(#852a0c5906)"><g clip-path="url(#1791a6ff99)"><path fill="#ffffff" d="M 3.472656 0.976562 L 3.472656 10.40625 L 0.128906 10.40625 L 0.128906 0.976562 Z M 3.472656 0.976562 " fill-opacity="1" fill-rule="nonzero"/></g></g></g></g></g></g><g clip-path="url(#9d2bbce597)"><g clip-path="url(#818739e7cf)"><g transform="matrix(1, 0, 0, 1, 25, 12)"><g clip-path="url(#876da471b1)"><g clip-path="url(#2d8953535d)"><g clip-path="url(#18e3efdde9)"><path fill="#ffffff" d="M 12.972656 4.179688 L 0.136719 4.179688 L 0.136719 0.835938 L 12.972656 0.835938 Z M 12.972656 4.179688 " fill-opacity="1" fill-rule="nonzero"/></g></g></g></g></g></g><g clip-path="url(#7256713573)"><g clip-path="url(#2382ff3a82)"><g transform="matrix(1, 0, 0, 1, 22, 3)"><g clip-path="url(#285488b57f)"><g clip-path="url(#015b95069c)"><g clip-path="url(#a648db93a8)"><path fill="#ffffff" d="M 0.34375 0.332031 L 13.675781 0.332031 L 13.675781 4.707031 L 0.34375 4.707031 Z M 0.34375 0.332031 " fill-opacity="1" fill-rule="nonzero"/></g></g></g></g></g></g><g clip-path="url(#9fde23c9a8)"><g clip-path="url(#474829eb08)"><g transform="matrix(1, 0, 0, 1, 24, 6)"><g clip-path="url(#2ceaf13d44)"><g clip-path="url(#75839c0c24)"><g clip-path="url(#588324d0b9)"><path fill="#ef7322" d="M 0.738281 0.0859375 L 9.285156 0.0859375 L 9.285156 4.460938 L 0.738281 4.460938 Z M 0.738281 0.0859375 " fill-opacity="1" fill-rule="nonzero"/></g></g></g></g></g></g></svg>